<svg version="1.2" baseProfile="tiny-ps" xmlns="http://www.w3.org/2000/svg" width="1000" height="1000" viewBox="0 0 1000 1000">
<title>Nadeshiko</title>
<path d="M0 0H216.939H783.984H1000V218.049V734.697V1000H0V737.271V208.572V0Z" fill="#EF5552"/>
<path fill-rule="evenodd" d="M733.365 545.042C733.131 545.069 732.889 545.096 732.641 545.124C732.89 545.096 733.13 545.069 733.365 545.042Z" fill="#FEFEFE"/>
<path d="M733.365 545.042L732.641 545.124L732.628 545.126C728.393 545.608 722.453 546.285 720.78 546.85C722.098 547.538 723.39 548.208 724.66 548.867C733.416 553.408 741.171 557.43 749.62 563.32C782.855 586.515 805.37 621.355 817.365 659.69C819.935 667.905 822.045 675.675 823.065 684.245C791.88 698.435 764.975 697.595 732.625 692.26C742.585 709.92 751.165 733.31 749.45 753.825C739.675 756.345 727.845 756.695 717.7 756.565C659.145 755.81 583.48 730.725 550.875 678.785C541.285 719.25 521.815 740.6 487.186 762.905C460.026 780.395 405.365 798.135 372.854 794.765C373.128 782.37 377.955 758.815 383.812 748.155C364.537 753.1 343.092 756.67 323.123 755.09C318.43 754.716 319.064 748.688 319.458 744.933C319.502 744.519 319.542 744.133 319.573 743.785C320.918 728.3 326.116 714.975 332.318 700.96C307.689 707.975 284.018 711.805 258.433 706.26C251.806 704.825 245.668 703.16 239.698 699.91C241.408 681.765 249.993 658.81 256.679 642.075C200.216 636.925 150.193 607.05 109.911 568.475C123.81 549.93 170.525 524.405 193.012 518.487C172.666 503.327 148.979 479.309 139.898 455.307C163.195 434.692 199.429 422.029 229.722 416.225C228.669 415.456 227.626 414.676 226.592 413.883C204.58 397.072 187.241 372.691 183.498 344.811C189.411 340.053 196.904 336.325 203.923 333.071C254.363 309.683 313.852 302.719 366 324C388.5 333.182 419 364 419 364C419 364 408 342.5 408.194 342.326C396.494 306.631 399.482 275.938 416.061 241.681C424.066 225.139 438.46 205.488 452.389 193.521C475.576 204.189 491.675 232.34 501.925 254.743C511.675 232.828 526.555 213.345 546.605 199.962C550.855 197.128 555.86 193.935 560.63 192.07C562.06 191.519 563.5 190.996 564.95 190.502C614.23 224.8 645.555 297.615 615.35 353.793C615.126 354.209 614.895 354.631 614.661 355.057C613.772 356.675 612.851 358.351 612.21 360.011C612.373 359.892 612.545 359.767 612.71 359.646L613.077 359.378C615.805 357.383 618.839 355.164 621.95 354.222L622.695 353.745C623.898 352.964 625.297 351.749 626.712 350.522C627.974 349.427 629.248 348.322 630.405 347.504C636.37 343.289 642.635 339.126 648.86 335.355C689.845 310.516 736.86 306.512 783.16 316.17C796.84 319.024 814.905 323.62 827.745 329.438C827.88 352.577 809.16 376.146 791.86 389.966C795.552 389.441 800.195 389.447 804.279 389.452C805.128 389.454 805.953 389.455 806.74 389.451C831.785 389.334 861.56 394.991 883.2 407.73C875.415 447.931 845.21 488.855 811.165 510.877C789.475 524.905 781.065 528.025 756.84 535.64C762.708 535.164 767.2 533.76 772.537 532.092C773.194 531.886 773.864 531.677 774.55 531.465C767.485 537.185 745.245 543.49 736.22 544.7C735.548 544.79 734.547 544.907 733.365 545.042Z" fill="#FEFEFE"/>
<path d="M505.81 390C509.014 390.736 512.329 390.848 515.579 390.329C513.389 428.526 514.704 466.842 519.509 504.798C521.039 497.621 523.555 490.528 525.425 483.428C527.36 476.087 529.164 468.321 530.639 460.871C533.935 462.118 537.5 462.49 540.985 461.949C538.74 477.687 536.965 489.972 534.09 505.825C547.915 487.652 568.309 450.068 574.374 428.088C577.559 429.727 581.049 430.682 584.624 430.891C578.059 454.917 562.435 490.737 548.99 511.879C564.63 498.847 597.609 476.116 615.895 466.681C617.085 469.737 618.88 472.523 621.16 474.878C604.335 485.814 589.809 499.03 576.059 513.513C602.389 510.941 637.349 518.871 661.324 529.601C625.229 522.841 591.525 521.986 556.095 532.011C582.805 541.026 608.749 562.056 623.749 585.796C597.324 564.621 558.88 542.291 524.96 540.461C526.38 549.716 528.46 576.551 526.725 585.126L524.96 586.626C521.935 568.476 517.1 553.181 508.105 537.051C479.616 534.061 451.046 545.456 426.837 559.621C441.715 541.996 455.744 530.186 477.956 522.566C439.779 511.674 406.339 520.442 370.403 534.331C321.452 553.251 281.988 587.906 259.988 635.946C259.102 637.881 257.795 640.736 256.768 642.536C200.305 637.386 150.282 607.511 110 568.936C123.899 550.391 170.615 524.866 193.101 518.948C237.238 549.301 294.126 567.732 345.589 545.712C340.929 548.272 348.875 544.307 345.589 545.712C391.5 509.5 427.433 501.264 463.589 502.461C427.528 465.52 401.493 444.76 352.589 428.961C350.49 428.851 354.69 429.035 352.589 428.961C397.589 437.961 440.598 455.435 481.596 500.909C476.324 474.593 470.272 455.991 458.336 431.715C461.763 430.295 464.841 428.148 467.358 425.422C468.552 428.056 470.519 431.55 472.038 434.098C484.582 455.151 492.573 477.262 501.56 499.906C499.268 462.644 503.145 426.778 505.81 390Z" fill="#0A0D0E"/>
<path d="M176 570.36C180.855 569.93 196.321 569.052 201.5 569.012C220.473 568.897 239.441 569.577 258.357 571.047C265.122 571.547 276.5 571.86 277.892 573.187C279.284 574.515 271 578.5 266.5 578.86C265.005 578.979 181.898 571.645 176 570.36Z" fill="#FEFEFE"/>
<path d="M383.812 748.155C387.716 747.515 393.277 745.53 397.117 744.315C451.932 726.945 503.82 690.64 520.13 632.785C521.78 626.92 523.195 620.745 524.225 614.715C524.92 610.675 525.09 606.53 526.03 602.505C526.89 606.915 526.65 613.14 527.63 618.21C532.405 642.83 538.37 657.46 550.875 678.785C541.285 719.25 521.815 740.6 487.185 762.905C460.025 780.395 405.365 798.135 372.854 794.765C373.128 782.37 377.955 758.815 383.812 748.155Z" fill="#0A0D0E"/>
<path d="M479 711.5C490.978 722.716 415.5 771.784 412 768.5C442.022 748.784 451.5 735.5 479 711.5Z" fill="#FEFEFE"/>
<path d="M574.285 427.627C562.61 421.615 557.36 407.755 562.125 395.517C566.89 383.279 580.13 376.616 592.795 380.08C605.465 383.545 613.47 396.017 611.34 408.976C609.215 421.935 597.645 431.195 584.535 430.43C580.96 430.221 577.47 429.266 574.285 427.627Z" fill="#FE333F"/>
<path d="M458.246 431.254C446.157 436.261 432.236 431.358 425.953 419.879C419.67 408.401 423.042 394.032 433.776 386.547C444.509 379.062 459.158 380.865 467.757 390.728C476.357 400.591 476.146 415.348 467.268 424.961C464.752 427.687 461.673 429.834 458.246 431.254Z" fill="#FE333F"/>
<path d="M505.72 389.539C492.858 386.586 484.346 374.346 486.053 361.263C487.76 348.179 499.127 338.533 512.315 338.978C525.5 339.423 536.19 349.812 537.015 362.981C537.835 376.15 528.52 387.788 515.49 389.868C512.24 390.387 508.925 390.275 505.72 389.539Z" fill="#FE333F"/>
<path d="M615.805 466.22C611.195 454.425 616.28 441.059 627.555 435.303C638.835 429.548 652.64 433.277 659.49 443.928C666.335 454.58 663.995 468.686 654.08 476.558C644.16 484.43 629.89 483.504 621.07 474.417C618.79 472.062 616.995 469.276 615.805 466.22Z" fill="#FE333F"/>
<path d="M530.55 460.41C520.96 456.783 515.555 446.602 517.915 436.626C520.28 426.65 529.685 419.979 539.88 421.042C550.075 422.104 557.9 430.57 558.16 440.819C558.415 451.068 551.025 459.915 540.895 461.488C537.41 462.029 533.845 461.658 530.55 460.41Z" fill="#FE333F"/>
<path d="M720.78 546.85C719.515 546.6 715.77 545.03 714.39 544.475C700.065 538.715 685.375 534.92 670.565 530.675C674.26 530.37 684.47 533.475 688.835 534.18C712.675 538.03 732.92 540.39 756.84 535.64C763.43 535.105 768.285 533.4 774.55 531.465C767.485 537.185 745.245 543.49 736.22 544.7C733.135 545.115 723.045 546.085 720.78 546.85Z" fill="#161A1E"/>
<path d="M524.87 586.165L526.635 584.665C526.565 588.765 526.435 592.865 526.25 596.965C525.745 593.37 525.285 589.77 524.87 586.165Z" fill="#0A0D0E"/>
</svg>
